<svg width="40" height="40" viewBox="0 0 40 40" fill="none" xmlns="http://www.w3.org/2000/svg">
<g id="calendar-icon">
<path id="Vector" d="M35 3.33331H5.00001C4.07954 3.33331 3.33334 4.07951 3.33334 4.99998V35C3.33334 35.9205 4.07954 36.6666 5.00001 36.6666H35C35.9205 36.6666 36.6667 35.9205 36.6667 35V4.99998C36.6667 4.07951 35.9205 3.33331 35 3.33331Z" stroke="#8494A1" stroke-width="1.66667" stroke-linecap="round" stroke-linejoin="round"/>
<path id="Vector_2" d="M3.33334 11.6667H36.6667" stroke="#8494A1" stroke-width="1.66667" stroke-linecap="round" stroke-linejoin="round"/>
<path id="Vector_3" d="M36.6667 9.16669V19.1667" stroke="#8494A1" stroke-width="1.66667" stroke-linecap="round" stroke-linejoin="round"/>
<g id="days3">
<path id="Vector_4" d="M10 18.3333H13.3333" stroke="#8494A1" stroke-width="1.66667" stroke-linecap="round" stroke-linejoin="round"/>
<path id="Vector_5" d="M18.3333 18.3333H21.6667" stroke="#8494A1" stroke-width="1.66667" stroke-linecap="round" stroke-linejoin="round"/>
<path id="Vector_6" d="M26.6667 18.3333H30" stroke="#8494A1" stroke-width="1.66667" stroke-linecap="round" stroke-linejoin="round"/>
<path id="Vector_7" d="M10 24.1667H13.3333" stroke="#8494A1" stroke-width="1.66667" stroke-linecap="round" stroke-linejoin="round"/>
<path id="Vector_8" d="M18.3333 24.1667H21.6667" stroke="#8494A1" stroke-width="1.66667" stroke-linecap="round" stroke-linejoin="round"/>
<path id="Vector_9" d="M26.6667 24.1667H30" stroke="#8494A1" stroke-width="1.66667" stroke-linecap="round" stroke-linejoin="round"/>
<path id="Vector_10" d="M10 30H13.3333" stroke="#8494A1" stroke-width="1.66667" stroke-linecap="round" stroke-linejoin="round"/>
<path id="Vector_11" d="M18.3333 30H21.6667" stroke="#8494A1" stroke-width="1.66667" stroke-linecap="round" stroke-linejoin="round"/>
<path id="Vector_12" d="M26.6667 30H30" stroke="#8494A1" stroke-width="1.66667" stroke-linecap="round" stroke-linejoin="round"/>
</g>
<g id="days2">
<path id="Vector_13" d="M10 18.3333H13.3333" stroke="#8494A1" stroke-width="1.66667" stroke-linecap="round" stroke-linejoin="round"/>
<path id="Vector_14" d="M18.3333 18.3333H21.6667" stroke="#8494A1" stroke-width="1.66667" stroke-linecap="round" stroke-linejoin="round"/>
<path id="Vector_15" d="M26.6667 18.3333H30" stroke="#8494A1" stroke-width="1.66667" stroke-linecap="round" stroke-linejoin="round"/>
<path id="Vector_16" d="M10 24.1667H13.3333" stroke="#8494A1" stroke-width="1.66667" stroke-linecap="round" stroke-linejoin="round"/>
<path id="Vector_17" d="M18.3333 24.1667H21.6667" stroke="#8494A1" stroke-width="1.66667" stroke-linecap="round" stroke-linejoin="round"/>
<path id="Vector_18" d="M26.6667 24.1667H30" stroke="#8494A1" stroke-width="1.66667" stroke-linecap="round" stroke-linejoin="round"/>
<path id="Vector_19" d="M10 30H13.3333" stroke="#8494A1" stroke-width="1.66667" stroke-linecap="round" stroke-linejoin="round"/>
<path id="Vector_20" d="M18.3333 30H21.6667" stroke="#8494A1" stroke-width="1.66667" stroke-linecap="round" stroke-linejoin="round"/>
<path id="Vector_21" d="M26.6667 30H30" stroke="#8494A1" stroke-width="1.66667" stroke-linecap="round" stroke-linejoin="round"/>
</g>
<g id="days">
<path id="Vector_22" d="M10 18.3333H13.3333" stroke="#8494A1" stroke-width="1.66667" stroke-linecap="round" stroke-linejoin="round"/>
<path id="Vector_23" d="M18.3333 18.3333H21.6667" stroke="#8494A1" stroke-width="1.66667" stroke-linecap="round" stroke-linejoin="round"/>
<path id="Vector_24" d="M26.6667 18.3333H30" stroke="#8494A1" stroke-width="1.66667" stroke-linecap="round" stroke-linejoin="round"/>
<path id="Vector_25" d="M10 24.1667H13.3333" stroke="#8494A1" stroke-width="1.66667" stroke-linecap="round" stroke-linejoin="round"/>
<path id="Vector_26" d="M18.3333 24.1667H21.6667" stroke="#8494A1" stroke-width="1.66667" stroke-linecap="round" stroke-linejoin="round"/>
<path id="Vector_27" d="M26.6667 24.1667H30" stroke="#8494A1" stroke-width="1.66667" stroke-linecap="round" stroke-linejoin="round"/>
<path id="Vector_28" d="M10 30H13.3333" stroke="#8494A1" stroke-width="1.66667" stroke-linecap="round" stroke-linejoin="round"/>
<path id="Vector_29" d="M18.3333 30H21.6667" stroke="#8494A1" stroke-width="1.66667" stroke-linecap="round" stroke-linejoin="round"/>
<path id="Vector_30" d="M26.6667 30H30" stroke="#8494A1" stroke-width="1.66667" stroke-linecap="round" stroke-linejoin="round"/>
</g>
<path id="Vector_31" d="M3.33334 9.16669V19.1667" stroke="#8494A1" stroke-width="1.66667" stroke-linecap="round" stroke-linejoin="round"/>
</g>
</svg>
