<svg width="28" height="22" viewBox="0 0 28 22" fill="none" xmlns="http://www.w3.org/2000/svg">
<g clip-path="url(#clip0_3027_1489)">
<path d="M28.1668 2.01212C28.1668 1.98163 28.1821 1.95114 28.1821 1.92065L19.5791 10.1676L28.1668 18.1554C28.1668 18.0944 28.1515 18.0334 28.1515 17.9877V2.01212H28.1668Z" fill="#DFE6EB"/>
<path d="M18.2777 11.4482L14.7569 14.8019C14.5732 14.9696 14.3435 15.061 14.1139 15.061C13.8843 15.061 13.67 14.9848 13.4863 14.8171L9.99611 11.5702L1.34717 19.8629C1.56148 19.9391 1.77579 20.0001 2.02071 20.0001H26.2224C26.5745 20.0001 26.896 19.8934 27.1868 19.7409L18.2777 11.4482Z" fill="#DFE6EB"/>
<path d="M14.1138 12.8811L27.2479 0.289634C26.9417 0.121951 26.605 0 26.2223 0H2.02055C1.5307 0 1.10208 0.182927 0.75 0.47256L14.1138 12.8811Z" fill="#DFE6EB"/>
<path d="M0 2.31714V17.9878C0 18.1708 0.0459236 18.3385 0.0918472 18.5061L8.63363 10.3202L0 2.31714Z" fill="#DFE6EB"/>
</g>
<defs>
<clipPath id="clip0_3027_1489">
<rect width="28" height="22" fill="white"/>
</clipPath>
</defs>
</svg>
